<?xml version="1.0" standalone="no"?>
<!DOCTYPE svg PUBLIC "-//W3C//DTD SVG 20010904//EN"
 "http://www.w3.org/TR/2001/REC-SVG-20010904/DTD/svg10.dtd">
<svg version="1.0" xmlns="http://www.w3.org/2000/svg"
 width="634.000000pt" height="640.000000pt" viewBox="0 0 634.000000 640.000000"
 preserveAspectRatio="xMidYMid meet">

<g transform="translate(0.000000,640.000000) scale(0.100000,-0.100000)"
fill="#ffffff" stroke="none">
<path d="M5878 6389 c-281 -27 -513 -117 -671 -259 -64 -58 -285 -311 -490
-563 -612 -750 -1277 -1678 -1971 -2750 -136 -210 -179 -257 -233 -257 -30 0
-38 7 -72 60 -45 69 -107 213 -181 420 -70 197 -95 247 -155 306 -39 40 -62
54 -102 63 -123 30 -341 -44 -540 -181 -128 -89 -198 -181 -210 -276 -11 -95
50 -334 198 -777 179 -534 304 -789 418 -853 35 -20 63 -24 208 -33 322 -19
505 12 607 102 21 18 150 200 286 404 957 1431 1960 2767 3049 4058 287 341
338 417 313 472 -6 13 -21 31 -34 39 -51 33 -227 44 -420 25z"/>
<path d="M2860 6034 c-19 -2 -80 -9 -135 -15 -55 -5 -165 -23 -245 -39 -1122
-224 -2029 -1037 -2353 -2110 -86 -283 -121 -528 -121 -850 1 -400 60 -717
201 -1075 343 -873 1086 -1547 1999 -1815 511 -149 1056 -168 1574 -53 1222
270 2169 1251 2369 2453 110 662 -2 1332 -319 1911 -96 177 -294 473 -311 466
-3 -1 -70 -76 -147 -166 -121 -140 -140 -166 -129 -180 7 -9 38 -51 70 -93
237 -318 373 -688 416 -1132 14 -141 14 -459 0 -584 -52 -478 -247 -947 -555
-1332 -260 -324 -646 -611 -1042 -774 -309 -128 -601 -190 -942 -203 -1003
-35 -1926 477 -2417 1342 -143 250 -253 575 -299 880 -23 150 -26 542 -6 680
73 489 252 905 548 1275 88 109 285 306 394 394 359 288 832 494 1285 561 234
35 637 35 870 0 219 -33 468 -110 652 -204 34 -17 64 -31 66 -31 2 0 51 60
108 133 56 72 118 151 137 174 l34 42 -89 44 c-274 138 -607 238 -943 283
-109 14 -589 27 -670 18z"/>
</g>
</svg>
